<svg t="1722501508113" class="icon" viewBox="0 0 1024 1024" version="1.1"
    xmlns="http://www.w3.org/2000/svg" p-id="10044" width="16" height="16">
    <path d="M511.488 551.808a16.128 16.128 0 0 1-7.8848-2.0992l-195.4048-110.1056a15.872 15.872 0 0 1-8.0896-13.9008l-0.512-226.9952c0-5.8112 3.0976-11.1104 8.1152-14.0032l196.48-111.0016a15.7184 15.7184 0 0 1 15.7184 0l196.6848 111.0016c4.992 2.816 8.1152 8.192 8.1152 13.9008v226.9952a16.0512 16.0512 0 0 1-8.192 14.0032l-197.2224 110.08a15.488 15.488 0 0 1-7.808 2.1248z m-179.3792-135.5008l179.4816 101.0944 181.2992-101.1968V208l-180.7872-101.9904-180.48 101.9904 0.4864 208.3072z" fill="#434777" p-id="10045"></path>
    <path d="M512.6912 481.2032l152.4992-84.096V228.7872l-152.3968 83.9168z" fill="#7E4AFF" p-id="10046"></path>
    <path d="M275.8912 952.32a16.128 16.128 0 0 1-7.8848-2.1248L72.6016 840.192a15.872 15.872 0 0 1-8.0896-13.9008L64 599.296c0-5.7856 3.0976-11.0848 8.0896-14.0032l196.5056-111.0016a15.7184 15.7184 0 0 1 15.6928 0l196.7104 111.0016c4.992 2.816 8.0896 8.192 8.0896 13.9008v226.9952a16.0512 16.0512 0 0 1-8.192 14.0032l-197.1968 110.1056a15.36 15.36 0 0 1-7.808 1.9968zM96.512 816.896l179.4816 101.12 181.2992-101.2224v-208.2048l-180.6848-101.9904-180.608 101.9904 0.512 208.3072z" fill="#434777" p-id="10047"></path>
    <path d="M277.0944 881.6896l152.4992-83.968v-168.4224l-152.3968 83.9936z" fill="#7E4AFF" p-id="10048"></path>
    <path d="M746.496 952.32a16.128 16.128 0 0 1-7.8848-2.1248l-195.4048-110.0032a15.872 15.872 0 0 1-8.1152-13.9008l-0.512-226.9952c0-5.7856 3.1232-11.0848 8.1152-14.0032l196.5056-111.0016a15.7184 15.7184 0 0 1 15.6928 0l196.7104 111.0016c4.992 2.816 8.0896 8.192 8.0896 13.9008v226.9952a16.0512 16.0512 0 0 1-8.192 14.0032l-197.1968 110.1056a15.8976 15.8976 0 0 1-7.808 1.9968z m-179.5072-135.424l179.5072 101.12 181.2992-101.2224v-208.2048l-180.6848-101.9904-180.5056 101.9904 0.384 208.3072z" fill="#434777" p-id="10049"></path>
    <path d="M747.5968 881.6896l152.4992-83.968v-168.4224l-152.3968 83.9936z" fill="#7E4AFF" p-id="10050"></path>
</svg>