<svg t="1732170283018" class="icon" viewBox="0 0 1024 1024" version="1.1" xmlns="http://www.w3.org/2000/svg" p-id="13935" width="28" height="28"><path d="M513.948 64c115.945 0 210.151 93.087 212.024 208.622l0.028 3.508-0.001 55.87H784c70.692 0 128 57.308 128 128v368c0 70.692-57.308 128-128 128H240c-70.692 0-128-57.308-128-128V460c0-70.692 57.308-128 128-128h421.999l0.001-55.87C662 194.317 595.712 128 513.948 128c-74.864 0-137.62 55.896-146.878 129.365l-0.264 2.232c-1.945 17.565-17.762 30.229-35.328 28.284-17.565-1.945-30.229-17.762-28.284-35.328C315.031 145.656 405.614 64 513.948 64zM512 540c-17.673 0-32 14.327-32 32v144c0 17.673 14.327 32 32 32 17.673 0 32-14.327 32-32V572c0-17.673-14.327-32-32-32z" fill="#646cff" p-id="13936"></path></svg>
